<?xml version="1.0" encoding="UTF-8" standalone="no"?>
<svg
   xmlns:dc="http://purl.org/dc/elements/1.1/"
   xmlns:cc="http://creativecommons.org/ns#"
   xmlns:rdf="http://www.w3.org/1999/02/22-rdf-syntax-ns#"
   xmlns:svg="http://www.w3.org/2000/svg"
   xmlns="http://www.w3.org/2000/svg"
   viewBox="0 0 662.71252 134.75"
   height="134.75"
   width="662.71252"
   xml:space="preserve"
   version="1.1"
   id="svg2"><metadata
     id="metadata8"><rdf:RDF><cc:Work
         rdf:about=""><dc:format>image/svg+xml</dc:format><dc:type
           rdf:resource="http://purl.org/dc/dcmitype/StillImage" /></cc:Work></rdf:RDF></metadata><defs
     id="defs6"><clipPath
       id="clipPath18"
       clipPathUnits="userSpaceOnUse"><path
         id="path20"
         d="M 760.793,530.832 C 740.453,411.668 571.824,305.473 306.965,330.52 c -0.848,15.839 -1.219,39.082 -0.68,51.386 172.039,-30.39 413.844,27.942 437.481,166.684 6.988,41.008 -11.332,80.973 -34.446,102.902 -22.992,21.906 -80.914,57.156 -173.172,68.067 54.247,0.957 118.832,-16.887 163.985,-46.379 45.121,-29.457 86.613,-69.321 105.726,-110.946 C 885.152,389.68 755.508,229.445 592.223,179.863 511.113,155.266 427.871,146.508 358.359,153.168 c -16.488,20.352 -25.277,43.125 -29.98,54.395 169.687,-20.793 331.976,16.89 428.906,119.539 64,67.824 75.125,211.832 6.031,286.988 39.883,-52.297 47.247,-124.75 13.493,-196.117 -68.59,-145.43 -277.356,-201.496 -455.754,-183.684 -3.071,12.344 -10.301,44.883 -12.063,56.863 201.43,-22.808 448.293,35.95 469.774,215.289 6.332,52.707 -10.407,89.918 -33.2,116.164 14.692,-25.781 21.211,-56.445 15.227,-91.773 z" /></clipPath><linearGradient
       id="linearGradient22"
       spreadMethod="pad"
       gradientTransform="matrix(523.76,0,0,-523.76,306.035,435.305)"
       gradientUnits="userSpaceOnUse"
       y2="0"
       x2="1"
       y1="0"
       x1="0"><stop
         id="stop24"
         offset="0"
         style="stop-opacity:1;stop-color:#f7951c" /><stop
         id="stop26"
         offset="1"
         style="stop-opacity:1;stop-color:#f25723" /></linearGradient><clipPath
       id="clipPath34"
       clipPathUnits="userSpaceOnUse"><path
         id="path36"
         d="M 740.914,340.742 C 664.965,472.668 405.922,542.727 279.121,591.637 152.379,640.555 12.5195,662.949 17.5234,838.344 190.281,679.348 366.27,646.668 504.066,568.891 626.176,499.949 764.746,432.07 786.406,272.102 797.77,188 766.344,119.965 714.797,73.3086 741.23,91.6992 763.75,114.941 779.34,143.203 859.844,287.949 787.402,432.32 651.305,529.25 571.199,586.32 363.707,684.34 225.609,761.16 87.4883,838.016 -12.3047,893.992 1.23047,1078 165.172,952.508 379.746,796.141 478.613,726 625.027,622.25 848.785,477.094 824.82,247.805 812.227,127.688 728.148,49.75 628.469,21.3086 610.641,14.6289 592.074,9.76172 573.285,6.80078 555.465,3.53906 536.438,1.33984 515.961,0.421875 300.387,-9.42969 162.402,154.641 146.582,324.816 c -3.254,33.68 -3.574,68.301 0.094,102.047 12.644,-5.179 26.215,-10.175 40.179,-14.898 -3.324,-23.047 -4.976,-46.61 -5.136,-71.406 C 181.09,231.379 238.66,127.297 332.41,66.8008 226.578,138.598 188.914,258.637 201.957,399.254 c 0.223,2.434 0.707,4.937 0.988,7.422 11.711,-3.688 23.516,-7.117 35.176,-10.258 -5.101,-34.395 -3.789,-67.891 -0.426,-103.301 7.246,-76.75 41.93,-141.562 91.598,-189.277 -63.43,75.84 -83.957,186.465 -72.473,287.754 11.379,-2.781 22.368,-5.215 32.903,-7.285 C 281.719,266.164 314.195,141.105 405.445,71.8398 465.898,26.0117 550.77,14.9609 626.777,33.8984 658.965,45.7305 687.172,63.1719 703.941,87.3086 748.578,151.203 733.281,236.262 692.984,290.742 595.211,423.02 421.621,409.133 249.727,458.188 118.047,495.719 32.8164,525.102 28.8086,651.688 117.555,580.047 215.488,560.621 318.57,525.02 421.711,489.422 638.672,442.223 714.836,302.23 c 45.262,-83.273 43.648,-170.214 -3.602,-225.1792 59.45,58.0782 77.684,180.2462 29.68,263.6912 z" /></clipPath><linearGradient
       id="linearGradient38"
       spreadMethod="pad"
       gradientTransform="matrix(826.597,0,0,-826.597,0,539.001)"
       gradientUnits="userSpaceOnUse"
       y2="0"
       x2="1"
       y1="0"
       x1="0"><stop
         id="stop40"
         offset="0"
         style="stop-opacity:1;stop-color:#f7951c" /><stop
         id="stop42"
         offset="1"
         style="stop-opacity:1;stop-color:#f25723" /></linearGradient></defs><g
     transform="matrix(1.25,0,0,-1.25,0,134.75)"
     id="g10"><g
       transform="scale(0.1,0.1)"
       id="g12"><g
         id="g14"><g
           clip-path="url(#clipPath18)"
           id="g16"><path
             id="path28"
             style="fill:url(#linearGradient22);fill-opacity:1;fill-rule:nonzero;stroke:none"
             d="M 760.793,530.832 C 740.453,411.668 571.824,305.473 306.965,330.52 c -0.848,15.839 -1.219,39.082 -0.68,51.386 172.039,-30.39 413.844,27.942 437.481,166.684 6.988,41.008 -11.332,80.973 -34.446,102.902 -22.992,21.906 -80.914,57.156 -173.172,68.067 54.247,0.957 118.832,-16.887 163.985,-46.379 45.121,-29.457 86.613,-69.321 105.726,-110.946 C 885.152,389.68 755.508,229.445 592.223,179.863 511.113,155.266 427.871,146.508 358.359,153.168 c -16.488,20.352 -25.277,43.125 -29.98,54.395 169.687,-20.793 331.976,16.89 428.906,119.539 64,67.824 75.125,211.832 6.031,286.988 39.883,-52.297 47.247,-124.75 13.493,-196.117 -68.59,-145.43 -277.356,-201.496 -455.754,-183.684 -3.071,12.344 -10.301,44.883 -12.063,56.863 201.43,-22.808 448.293,35.95 469.774,215.289 6.332,52.707 -10.407,89.918 -33.2,116.164 14.692,-25.781 21.211,-56.445 15.227,-91.773" /></g></g><g
         id="g30"><g
           clip-path="url(#clipPath34)"
           id="g32"><path
             id="path44"
             style="fill:url(#linearGradient38);fill-opacity:1;fill-rule:nonzero;stroke:none"
             d="M 740.914,340.742 C 664.965,472.668 405.922,542.727 279.121,591.637 152.379,640.555 12.5195,662.949 17.5234,838.344 190.281,679.348 366.27,646.668 504.066,568.891 626.176,499.949 764.746,432.07 786.406,272.102 797.77,188 766.344,119.965 714.797,73.3086 741.23,91.6992 763.75,114.941 779.34,143.203 859.844,287.949 787.402,432.32 651.305,529.25 571.199,586.32 363.707,684.34 225.609,761.16 87.4883,838.016 -12.3047,893.992 1.23047,1078 165.172,952.508 379.746,796.141 478.613,726 625.027,622.25 848.785,477.094 824.82,247.805 812.227,127.688 728.148,49.75 628.469,21.3086 610.641,14.6289 592.074,9.76172 573.285,6.80078 555.465,3.53906 536.438,1.33984 515.961,0.421875 300.387,-9.42969 162.402,154.641 146.582,324.816 c -3.254,33.68 -3.574,68.301 0.094,102.047 12.644,-5.179 26.215,-10.175 40.179,-14.898 -3.324,-23.047 -4.976,-46.61 -5.136,-71.406 C 181.09,231.379 238.66,127.297 332.41,66.8008 226.578,138.598 188.914,258.637 201.957,399.254 c 0.223,2.434 0.707,4.937 0.988,7.422 11.711,-3.688 23.516,-7.117 35.176,-10.258 -5.101,-34.395 -3.789,-67.891 -0.426,-103.301 7.246,-76.75 41.93,-141.562 91.598,-189.277 -63.43,75.84 -83.957,186.465 -72.473,287.754 11.379,-2.781 22.368,-5.215 32.903,-7.285 C 281.719,266.164 314.195,141.105 405.445,71.8398 465.898,26.0117 550.77,14.9609 626.777,33.8984 658.965,45.7305 687.172,63.1719 703.941,87.3086 748.578,151.203 733.281,236.262 692.984,290.742 595.211,423.02 421.621,409.133 249.727,458.188 118.047,495.719 32.8164,525.102 28.8086,651.688 117.555,580.047 215.488,560.621 318.57,525.02 421.711,489.422 638.672,442.223 714.836,302.23 c 45.262,-83.273 43.648,-170.214 -3.602,-225.1792 59.45,58.0782 77.684,180.2462 29.68,263.6912" /></g></g><path
         id="path46"
         style="fill:#ffffff;fill-opacity:1;fill-rule:nonzero;stroke:none"
         d="M 1513.54,181.047 1502.28,71.3281 c -59.47,-45.1093 -130.9,-67.66794 -214.3,-67.66794 -105.27,0 -190.71,35.51954 -256.35,106.64484 -60.15,65.617 -90.212,144.922 -90.212,237.851 0,95.703 30.77,176.375 92.272,242.012 67.67,72.426 158.58,108.687 272.74,108.687 69.73,0 126.47,-8.566 170.22,-25.644 0,-82.035 2.05,-149.719 6.15,-203.027 l -19.47,0 c -8.22,41.687 -27.53,73.824 -57.94,96.386 -30.43,22.559 -67.51,33.825 -111.25,33.825 -60.17,0 -109.38,-21.52 -147.66,-64.598 -39.64,-45.098 -59.47,-105.246 -59.47,-180.461 0,-61.516 21.88,-117.219 65.63,-167.109 45.79,-53.313 101.15,-79.993 166.1,-79.993 30.07,0 63.39,6.496 99.98,19.5 36.55,12.961 68.17,30.754 94.82,53.313" /><path
         id="path48"
         style="fill:#ffffff;fill-opacity:1;fill-rule:nonzero;stroke:none"
         d="m 1757.6,307.172 c 47.15,129.187 74.83,207.781 83.04,235.801 l 2.05,0 c 17.76,-88.856 37.59,-167.485 59.47,-235.801 l -144.56,0 z M 2119.53,106.184 1930.87,682.43 c -42.39,-4.094 -74.52,-6.137 -96.38,-6.137 -20.5,0 -52.65,2.043 -96.38,6.137 l 0,-19.481 c 25.97,0 38.97,-8.894 38.97,-26.648 0,-4.121 -4.47,-17.438 -13.34,-39.996 L 1562.76,86.7109 c -10.94,-28.0507 -28.71,-43.7617 -53.3,-47.1718 l 0,-19.4805 c 47.83,4.0898 83.38,6.1602 106.63,6.1602 23.9,0 59.12,-2.0704 105.61,-6.1602 l 0,19.4805 c -32.14,2.0429 -48.21,12.9804 -48.21,32.8203 0,9.5781 2.75,21.5312 8.21,35.8746 l 45.13,120.989 199.94,0 32.81,-99.438 c 6.82,-20.515 10.25,-37.6131 10.25,-51.2889 0,-19.8359 -17.09,-32.7852 -51.27,-38.957 l 0,-19.4805 c 58.78,4.0898 102.87,6.1602 132.28,6.1602 29.38,0 72.79,-2.0704 130.21,-6.1602 l 0,19.4805 c -28.7,7.5195 -49.21,29.7422 -61.52,66.6449" /><path
         id="path50"
         style="fill:#ffffff;fill-opacity:1;fill-rule:nonzero;stroke:none"
         d="m 2404.58,586.047 0,-484.988 c 0,-19.1215 3.91,-32.7973 11.78,-41.0082 7.84,-8.1992 26.15,-15.0625 54.85,-20.5117 l 0,-19.4805 c -86.11,4.0898 -133.64,6.1602 -142.51,6.1602 -21.89,0 -62.9,-2.0704 -123.04,-6.1602 l 0,19.4805 c 20.52,3.4101 34.18,11.6211 41,24.6015 4.12,8.8985 6.17,24.9649 6.17,48.2144 l 0,501.383 c 0,28.016 -15.75,42.367 -47.17,43.051 l 0,19.504 303.5,0 c 172.26,0 258.38,-69.73 258.38,-209.188 0,-62.882 -21.36,-112.777 -64.08,-149.679 -42.73,-36.914 -97.6,-55.383 -164.57,-55.383 -25.98,0 -53.15,5.293 -81.52,15.898 -28.37,10.594 -42.54,21.016 -42.54,31.27 0,6.16 5.12,9.219 15.38,9.219 2.72,0 8.21,-0.496 16.41,-1.524 8.19,-1.047 14.68,-1.535 19.47,-1.535 99.81,0 149.71,48.527 149.71,145.594 0,83.375 -49.22,125.082 -147.65,125.082 l -63.57,0" /><path
         id="path52"
         style="fill:#ffffff;fill-opacity:1;fill-rule:nonzero;stroke:none"
         d="m 2851.36,88.7539 0,524.9841 c 0,28.016 -15.71,42.367 -47.15,43.051 l 0,19.504 513.71,0 c 1.36,-64.684 4.09,-120.387 8.18,-167.148 l -19.47,1.039 c -5.49,29.379 -12.99,49.207 -22.57,59.472 -11.62,10.907 -30.74,16.391 -57.41,16.391 l -223.52,0 0,-177.379 140.46,0 c 21.88,0 36.92,4.094 45.12,12.305 6.14,6.824 10.92,20.164 14.36,39.992 l 19.48,0 c -4.09,-34.203 -6.16,-66.649 -6.16,-97.418 0,-32.129 2.07,-64.59 6.16,-97.383 l -19.48,0 c -3.44,19.805 -8.22,33.145 -14.36,39.961 -8.2,8.215 -23.24,12.305 -45.12,12.305 l -140.46,0 0,-201.985 234.81,0 c 28.01,0 47.83,6.684 59.46,19.993 11.63,13.339 21.88,41.523 30.74,84.597 l 25.65,0 c -6.84,-63.562 -10.94,-128.5233 -12.3,-194.8162 l -537.28,0 0,19.4921 c 31.44,0.6485 47.15,15.0196 47.15,43.043" /><path
         id="path54"
         style="fill:#ffffff;fill-opacity:1;fill-rule:nonzero;stroke:none"
         d="M 3963.62,181.047 3952.33,71.3281 C 3892.86,26.2188 3821.44,3.66016 3738.05,3.66016 c -105.29,0 -190.74,35.51954 -256.33,106.64484 -60.19,65.617 -90.26,144.922 -90.26,237.851 0,95.703 30.79,176.375 92.3,242.012 67.68,72.426 158.58,108.687 272.72,108.687 69.73,0 126.47,-8.566 170.23,-25.644 0,-82.035 2.05,-149.719 6.14,-203.027 l -19.48,0 c -8.2,41.687 -27.52,73.824 -57.91,96.386 -30.42,22.559 -67.52,33.825 -111.28,33.825 -60.16,0 -109.37,-21.52 -147.64,-64.598 -39.65,-45.098 -59.47,-105.246 -59.47,-180.461 0,-61.516 21.88,-117.219 65.64,-167.109 45.78,-53.313 101.15,-79.993 166.08,-79.993 30.09,0 63.42,6.496 99.98,19.5 36.55,12.961 68.2,30.754 94.85,53.313" /><path
         id="path56"
         style="fill:#ffffff;fill-opacity:1;fill-rule:nonzero;stroke:none"
         d="m 4076.41,88.7539 0,524.9841 c 0,28.016 -15.75,42.367 -47.17,43.051 l 0,19.504 513.69,0 c 1.37,-64.684 4.12,-120.387 8.21,-167.148 l -19.47,1.039 c -5.49,29.379 -12.99,49.207 -22.56,59.472 -11.63,10.907 -30.78,16.391 -57.43,16.391 l -223.55,0 0,-177.379 140.5,0 c 21.86,0 36.92,4.094 45.1,12.305 6.16,6.824 10.94,20.164 14.38,39.992 l 19.48,0 c -4.12,-34.203 -6.16,-66.649 -6.16,-97.418 0,-32.129 2.04,-64.59 6.16,-97.383 l -19.48,0 c -3.44,19.805 -8.22,33.145 -14.38,39.961 -8.18,8.215 -23.24,12.305 -45.1,12.305 l -140.5,0 0,-201.985 234.85,0 c 28.01,0 47.82,6.684 59.44,19.993 11.61,13.339 21.88,41.523 30.77,84.597 l 25.64,0 C 4571.99,157.473 4567.87,92.5117 4566.5,26.2188 l -537.26,0 0,19.4921 c 31.42,0.6485 47.17,15.0196 47.17,43.043" /><path
         id="path58"
         style="fill:#ffffff;fill-opacity:1;fill-rule:nonzero;stroke:none"
         d="m 5254.52,613.738 c 0,28.016 15.73,42.367 47.17,43.051 l 0,19.504 -645.98,0 0,-19.504 c 31.46,-0.684 47.16,-15.035 47.16,-43.051 l 0,-531.1208 c 0,-28.0469 -15.7,-42.3867 -47.16,-43.0781 l 0,-19.4805 c 60.16,4.0898 101.18,6.1602 123.04,6.1602 21.88,0 62.88,-2.0704 123.07,-6.1602 l 0,19.4805 c -31.47,0.6914 -47.18,15.0312 -47.18,43.0781 l 0,503.4298 248.14,0 0,-503.4298 c 0,-28.0469 -15.74,-42.3867 -47.19,-43.0781 l 0,-19.4805 c 60.15,4.0898 101.19,6.1602 123.06,6.1602 21.89,0 62.88,-2.0704 123.04,-6.1602 l 0,19.4805 c -31.44,0.6914 -47.17,15.0312 -47.17,43.0781 l 0,531.1208" /></g></g></svg>