<?xml version="1.0" encoding="utf-8"?>
<!-- Generator: Adobe Illustrator 19.0.0, SVG Export Plug-In . SVG Version: 6.00 Build 0)  -->
<svg version="1.1" id="Layer_1" xmlns="http://www.w3.org/2000/svg" xmlns:xlink="http://www.w3.org/1999/xlink" x="0px" y="0px"
	 viewBox="0 0 612 185.8" style="enable-background:new 0 0 612 185.8;" xml:space="preserve">
<style type="text/css">
	.st0{fill:#FFFFFF;}
</style>
<g id="XMLID_1190_">
	<g id="XMLID_1201_">
		<path id="XMLID_74_" class="st0" d="M75,61.1v11.1H57.7V60.4c0-11.1-5.9-17.8-19.2-17.8c-13.1,0-19.2,6.7-19.2,17.8v65.1
			c0,11.1,6.1,17.8,19.2,17.8c13.4,0,19.2-6.7,19.2-17.8v-16H75v15.3c0,18.7-11.7,31-37,31c-25.1,0-36.8-12.3-36.8-31V61.1
			c0-18.7,11.7-31,36.8-31C63.3,30.1,75,42.4,75,61.1"/>
	</g>
	<g id="XMLID_1198_">
		<path id="XMLID_65_" class="st0" d="M130.6,46.8l18.5,71.1h-36.6L130.6,46.8z M144.8,31.3h-26.5L87,154.6h16.9l6.3-24.8h41.5
			l6.3,24.8h18.3L144.8,31.3z"/>
	</g>
	<g id="XMLID_1195_">
		<path id="XMLID_61_" class="st0" d="M225,93.7c13.6,0,20.1-4.8,20.1-16.5V60.7c0-11.3-5.4-16.9-18.7-16.9h-17.6v49.8H225z
			 M226.4,31.3c25.8,0,36.8,11.4,36.8,30.1v14.8c0,19.5-12.2,29.7-38.2,29.7h-16.2v48.6h-18.3V31.3H226.4z"/>
	</g>
	<g id="XMLID_1194_">
		<polygon id="XMLID_59_" class="st0" points="344.9,142.1 295.7,142.1 295.7,98.2 335.8,98.2 335.8,85.9 295.7,85.9 295.7,43.8 
			344.9,43.8 344.9,31.3 277.4,31.3 277.4,154.6 344.9,154.6 		"/>
	</g>
	<g id="XMLID_1193_">
		<path id="XMLID_45_" class="st0" d="M434.2,61.1v11.1h-17.3V60.4c0-11.1-5.9-17.8-19.2-17.8c-13.1,0-19.2,6.7-19.2,17.8v65.1
			c0,11.1,6.1,17.8,19.2,17.8c13.4,0,19.2-6.7,19.2-17.8v-16h17.3v15.3c0,18.7-11.7,31-37,31c-25.1,0-36.8-12.3-36.8-31V61.1
			c0-18.7,11.7-31,36.8-31C422.5,30.1,434.2,42.4,434.2,61.1"/>
	</g>
	<g id="XMLID_1192_">
		<polygon id="XMLID_42_" class="st0" points="518.3,142.1 469.1,142.1 469.1,98.2 509.1,98.2 509.1,85.9 469.1,85.9 469.1,43.8 
			518.3,43.8 518.3,31.3 450.8,31.3 450.8,154.6 518.3,154.6 		"/>
	</g>
	<g id="XMLID_1191_">
		<polygon id="XMLID_40_" class="st0" points="612,31.3 535.1,31.3 535.1,154.6 553.4,154.6 553.4,43.8 593.7,43.8 593.7,154.6 
			612,154.6 		"/>
	</g>
</g>
</svg>
