<svg width="426" height="133" xmlns="http://www.w3.org/2000/svg" xmlns:xlink="http://www.w3.org/1999/xlink">
 <style type="text/css">.st0{clip-path:url(#XMLID_19_);fill:#fff;}
	.st1{fill:#fff;}
	.st2{clip-path:url(#XMLID_20_);fill:#fff;}
	.st3{clip-path:url(#XMLID_21_);fill:#fff;}</style>
 <g>
  <title>background</title>
  <rect fill="none" id="canvas_background" height="135" width="428" y="-1" x="-1"/>
 </g>
 <g>
  <title>Layer 1</title>
  <g id="XMLID_16_">
   <defs transform="translate(1,1) translate(-86,-308) ">
    <rect height="85.4" width="100" y="327.6" x="90" id="XMLID_17_"/>
   </defs>
   <clipPath transform="translate(1,1) translate(-86,-308) " id="XMLID_19_">
    <use id="svg_1" xlink:href="#XMLID_17_"/>
   </clipPath>
   <path d="m55.2,41.6l0,7.5l-11.8,0l0,-8c0,-7.5 -4,-12.1 -13.1,-12.1c-8.9,0 -13.1,4.5 -13.1,12.1l0,44.3c0,7.5 4.1,12.1 13.1,12.1c9.1,0 13.1,-4.5 13.1,-12.1l0,-10.9l11.8,0l0,10.5c0,12.7 -8,21.1 -25.2,21.1c-17,0 -25,-8.4 -25,-21.1l0,-43.3c0,-12.7 8,-21.1 25,-21.1c17.2,0 25.2,8.4 25.2,21" class="st0" id="XMLID_18_"/>
  </g>
  <path d="m92.9,32l12.6,48.3l-24.8,0l12.2,-48.3zm-8.2,-10.6l-21.3,83.8l11.5,0l4.3,-16.9l28.2,0l4.3,16.9l12.3,0l-21.3,-83.8l-18,0z" class="st1" id="XMLID_13_"/>
  <g id="XMLID_8_">
   <defs transform="translate(1,1) translate(-86,-308) ">
    <rect height="85.4" width="415.2" y="327.6" x="90" id="XMLID_9_"/>
   </defs>
   <clipPath transform="translate(1,1) translate(-86,-308) " id="XMLID_20_">
    <use id="svg_2" xlink:href="#XMLID_9_"/>
   </clipPath>
   <path d="m157.1,63.8c9.2,0 13.7,-3.2 13.7,-11.2l0,-11.1c0,-7.7 -3.7,-11.5 -12.7,-11.5l-11.9,0l0,33.9l10.9,0l0,-0.1zm1,-42.4c17.5,0 25,7.8 25,20.5l0,10.1c0,13.3 -8.3,20.2 -26,20.2l-11,0l0,33l-12.4,0l0,-83.8l24.4,0z" class="st2" id="XMLID_10_"/>
  </g>
  <polygon points="192.79998779296875,21.399993896484375 192.79998779296875,105.20001220703125 238.70001220703125,105.20001220703125 238.70001220703125,96.70001220703125 205.20001220703125,96.70001220703125 205.20001220703125,66.89999389648438 232.5,66.89999389648438 232.5,58.5 205.20001220703125,58.5 205.20001220703125,29.899993896484375 238.70001220703125,29.899993896484375 238.70001220703125,21.399993896484375 " class="st1" id="XMLID_7_"/>
  <g id="XMLID_4_">
   <defs transform="translate(1,1) translate(-86,-308) ">
    <rect height="85.4" width="415.2" y="327.6" x="90" id="XMLID_5_"/>
   </defs>
   <clipPath transform="translate(1,1) translate(-86,-308) " id="XMLID_21_">
    <use id="svg_3" xlink:href="#XMLID_5_"/>
   </clipPath>
   <path d="m299.4,41.6l0,7.5l-11.8,0l0,-8c0,-7.5 -4,-12.1 -13.1,-12.1c-8.9,0 -13.1,4.5 -13.1,12.1l0,44.3c0,7.5 4.1,12.1 13.1,12.1c9.1,0 13.1,-4.5 13.1,-12.1l0,-10.9l11.8,0l0,10.5c0,12.7 -8,21.1 -25.2,21.1c-17,0 -25,-8.4 -25,-21.1l0,-43.3c0,-12.7 8,-21.1 25,-21.1c17.2,0 25.2,8.4 25.2,21" class="st3" id="XMLID_6_"/>
  </g>
  <polygon points="310.70001220703125,21.399993896484375 310.70001220703125,105.20001220703125 356.5,105.20001220703125 356.5,96.70001220703125 323.1000061035156,96.70001220703125 323.1000061035156,66.89999389648438 350.29998779296875,66.89999389648438 350.29998779296875,58.5 323.1000061035156,58.5 323.1000061035156,29.899993896484375 356.5,29.899993896484375 356.5,21.399993896484375 " class="st1" id="XMLID_3_"/>
  <polygon points="368,21.399993896484375 368,105.20001220703125 380.3999938964844,105.20001220703125 380.3999938964844,29.899993896484375 407.79998779296875,29.899993896484375 407.79998779296875,105.20001220703125 420.29998779296875,105.20001220703125 420.29998779296875,21.399993896484375 " class="st1" id="XMLID_2_"/>
 </g>
</svg>