<svg width="582" height="102" xmlns="http://www.w3.org/2000/svg" xmlns:xlink="http://www.w3.org/1999/xlink">
 <style type="text/css">.st0{clip-path:url(#XMLID_19_);fill:#fff;}
	.st1{fill:#fff;}
	.st2{clip-path:url(#XMLID_20_);fill:#fff;}
	.st3{clip-path:url(#XMLID_21_);fill:#fff;}</style>
 <g>
  <title>background</title>
  <rect fill="none" id="canvas_background" height="104" width="584" y="-1" x="-1"/>
 </g>
 <g>
  <title>Layer 1</title>
  <g id="XMLID_16_">
   <defs transform="translate(0,-0.4444584548473358) translate(0,-0.4444584548473358) translate(0,-0.4444584548473358) translate(0,-0.4444584548473358) translate(0,-0.4444584548473358) translate(0,-0.4444584548473358) translate(0,-0.4444584548473358) translate(0,-0.4444584548473358) translate(0,-0.4444584548473358) translate(0,-0.4444584548473358) translate(0,-0.4444584548473358) translate(0,-0.4444584548473358) translate(-0.4444584548473358,0) translate(-0.4444584548473358,0) translate(-0.4444584548473358,0) translate(-0.4444584548473358,0) translate(-0.4444584548473358,0) translate(-0.4444584548473358,0) translate(-0.4444584548473358,0) translate(-0.2222219556570053,0) translate(-0.2222219556570053,0) translate(-0.2222219556570053,0) translate(-0.2222219556570053,0) translate(-0.2222219556570053,0) translate(-0.2222219556570053,0) translate(-0.2222219556570053,0) translate(-0.2222219556570053,0) translate(-0.2222219556570053,0) translate(-0.2222219556570053,0) translate(-0.2222219556570053,0) translate(-0.2222219556570053,0) translate(-0.2222219556570053,0) translate(-0.2222219556570053,0) translate(0.2222219556570053,0) translate(0.2222219556570053,0) translate(0.2222219556570053,0) translate(0.2222219556570053,0) translate(0.2222219556570053,0) translate(0.2222219556570053,0) translate(0.2222219556570053,0) translate(0.2222219556570053,0) translate(0.2222219556570053,0) translate(0.2222219556570053,0) translate(0.2222219556570053,0) translate(0.2222219556570053,0) translate(0.2222219556570053,0) translate(0.2222219556570053,0) translate(0.2222219556570053,0) translate(0.2222219556570053,0) translate(0.2222219556570053,0) translate(0.2222219556570053,0) translate(0.2222219556570053,0) translate(0.2222219556570053,0) translate(0.2222219556570053,0) translate(0.2222219556570053,0) translate(0.2222219556570053,0) translate(0.2222219556570053,0) translate(0.2222219556570053,0) translate(0.2222219556570053,0) translate(0.2222219556570053,0) translate(0.2222219556570053,0) translate(0.2222219556570053,0) translate(-1.4999992847442627,11.499994277954102) translate(-89,-327) translate(1,1) ">
    <rect height="85.4" width="100" y="327.6" x="90" id="XMLID_17_"/>
   </defs>
   <clipPath transform="translate(0,-0.4444584548473358) translate(0,-0.4444584548473358) translate(0,-0.4444584548473358) translate(0,-0.4444584548473358) translate(0,-0.4444584548473358) translate(0,-0.4444584548473358) translate(0,-0.4444584548473358) translate(0,-0.4444584548473358) translate(0,-0.4444584548473358) translate(0,-0.4444584548473358) translate(0,-0.4444584548473358) translate(0,-0.4444584548473358) translate(-0.4444584548473358,0) translate(-0.4444584548473358,0) translate(-0.4444584548473358,0) translate(-0.4444584548473358,0) translate(-0.4444584548473358,0) translate(-0.4444584548473358,0) translate(-0.4444584548473358,0) translate(-0.2222219556570053,0) translate(-0.2222219556570053,0) translate(-0.2222219556570053,0) translate(-0.2222219556570053,0) translate(-0.2222219556570053,0) translate(-0.2222219556570053,0) translate(-0.2222219556570053,0) translate(-0.2222219556570053,0) translate(-0.2222219556570053,0) translate(-0.2222219556570053,0) translate(-0.2222219556570053,0) translate(-0.2222219556570053,0) translate(-0.2222219556570053,0) translate(-0.2222219556570053,0) translate(0.2222219556570053,0) translate(0.2222219556570053,0) translate(0.2222219556570053,0) translate(0.2222219556570053,0) translate(0.2222219556570053,0) translate(0.2222219556570053,0) translate(0.2222219556570053,0) translate(0.2222219556570053,0) translate(0.2222219556570053,0) translate(0.2222219556570053,0) translate(0.2222219556570053,0) translate(0.2222219556570053,0) translate(0.2222219556570053,0) translate(0.2222219556570053,0) translate(0.2222219556570053,0) translate(0.2222219556570053,0) translate(0.2222219556570053,0) translate(0.2222219556570053,0) translate(0.2222219556570053,0) translate(0.2222219556570053,0) translate(0.2222219556570053,0) translate(0.2222219556570053,0) translate(0.2222219556570053,0) translate(0.2222219556570053,0) translate(0.2222219556570053,0) translate(0.2222219556570053,0) translate(0.2222219556570053,0) translate(0.2222219556570053,0) translate(0.2222219556570053,0) translate(-1.4999992847442627,11.499994277954102) translate(-89,-327) translate(1,1) " id="XMLID_19_">
    <use id="svg_1" xlink:href="#XMLID_17_"/>
   </clipPath>
   <path d="m50.922121,28.766493l0,7.5l-11.8,0l0,-8c0,-7.5 -4,-12.1 -13.1,-12.1c-8.9,0 -13.1,4.5 -13.1,12.1l0,44.3c0,7.5 4.1,12.1 13.1,12.1c9.1,0 13.1,-4.5 13.1,-12.1l0,-10.9l11.8,0l0,10.5c0,12.7 -8,21.1 -25.2,21.1c-17,0 -25,-8.4 -25,-21.1l0,-43.3c0,-12.7 8,-21.1 25,-21.1c17.2,0 25.2,8.4 25.2,21" class="st0" id="XMLID_18_"/>
  </g>
  <path stroke="null" d="m88.622121,17.809594l12.6,47.787653l-24.8,0l12.2,-47.787653zm-8.2,-10.487559l-21.3,82.911083l11.5,0l4.3,-16.720732l28.2,0l4.3,16.720732l12.3,0l-21.3,-82.911083l-18,0z" class="st1" id="XMLID_13_"/>
  <g id="XMLID_8_">
   <defs transform="translate(0,-0.8000001907348633) translate(0,-0.4444584548473358) translate(0,-0.4444584548473358) translate(0,-0.4444584548473358) translate(0,-0.4444584548473358) translate(0,-0.4444584548473358) translate(0,-0.4444584548473358) translate(0,-0.4444584548473358) translate(0,-0.4444584548473358) translate(0,-0.4444584548473358) translate(0,-0.4444584548473358) translate(0,-0.4444584548473358) translate(0,-0.4444584548473358) translate(-0.4444584548473358,0) translate(-0.4444584548473358,0) translate(-0.4444584548473358,0) translate(-0.4444584548473358,0) translate(-0.4444584548473358,0) translate(-0.4444584548473358,0) translate(-0.4444584548473358,0) translate(-0.2222219556570053,0) translate(-0.2222219556570053,0) translate(-0.2222219556570053,0) translate(-0.2222219556570053,0) translate(-0.2222219556570053,0) translate(-0.2222219556570053,0) translate(-0.2222219556570053,0) translate(-0.2222219556570053,0) translate(-0.2222219556570053,0) translate(-0.2222219556570053,0) translate(-0.2222219556570053,0) translate(-0.2222219556570053,0) translate(-0.2222219556570053,0) translate(-0.2222219556570053,0) translate(0.2222219556570053,0) translate(0.2222219556570053,0) translate(0.2222219556570053,0) translate(0.2222219556570053,0) translate(0.2222219556570053,0) translate(0.2222219556570053,0) translate(0.2222219556570053,0) translate(0.2222219556570053,0) translate(0.2222219556570053,0) translate(0.2222219556570053,0) translate(0.2222219556570053,0) translate(0.2222219556570053,0) translate(0.2222219556570053,0) translate(0.2222219556570053,0) translate(0.2222219556570053,0) translate(0.2222219556570053,0) translate(0.2222219556570053,0) translate(0.2222219556570053,0) translate(0.2222219556570053,0) translate(0.2222219556570053,0) translate(0.2222219556570053,0) translate(0.2222219556570053,0) translate(0.2222219556570053,0) translate(0.2222219556570053,0) translate(0.2222219556570053,0) translate(0.2222219556570053,0) translate(0.2222219556570053,0) translate(0.2222219556570053,0) translate(0.2222219556570053,0) translate(-1.4999992847442627,11.499994277954102) translate(-89,-327) translate(1,1) ">
    <rect height="85.4" width="415.2" y="327.6" x="90" id="XMLID_9_"/>
   </defs>
   <clipPath transform="translate(0,-0.8000001907348633) translate(0,-0.4444584548473358) translate(0,-0.4444584548473358) translate(0,-0.4444584548473358) translate(0,-0.4444584548473358) translate(0,-0.4444584548473358) translate(0,-0.4444584548473358) translate(0,-0.4444584548473358) translate(0,-0.4444584548473358) translate(0,-0.4444584548473358) translate(0,-0.4444584548473358) translate(0,-0.4444584548473358) translate(0,-0.4444584548473358) translate(-0.4444584548473358,0) translate(-0.4444584548473358,0) translate(-0.4444584548473358,0) translate(-0.4444584548473358,0) translate(-0.4444584548473358,0) translate(-0.4444584548473358,0) translate(-0.4444584548473358,0) translate(-0.2222219556570053,0) translate(-0.2222219556570053,0) translate(-0.2222219556570053,0) translate(-0.2222219556570053,0) translate(-0.2222219556570053,0) translate(-0.2222219556570053,0) translate(-0.2222219556570053,0) translate(-0.2222219556570053,0) translate(-0.2222219556570053,0) translate(-0.2222219556570053,0) translate(-0.2222219556570053,0) translate(-0.2222219556570053,0) translate(-0.2222219556570053,0) translate(-0.2222219556570053,0) translate(0.2222219556570053,0) translate(0.2222219556570053,0) translate(0.2222219556570053,0) translate(0.2222219556570053,0) translate(0.2222219556570053,0) translate(0.2222219556570053,0) translate(0.2222219556570053,0) translate(0.2222219556570053,0) translate(0.2222219556570053,0) translate(0.2222219556570053,0) translate(0.2222219556570053,0) translate(0.2222219556570053,0) translate(0.2222219556570053,0) translate(0.2222219556570053,0) translate(0.2222219556570053,0) translate(0.2222219556570053,0) translate(0.2222219556570053,0) translate(0.2222219556570053,0) translate(0.2222219556570053,0) translate(0.2222219556570053,0) translate(0.2222219556570053,0) translate(0.2222219556570053,0) translate(0.2222219556570053,0) translate(0.2222219556570053,0) translate(0.2222219556570053,0) translate(0.2222219556570053,0) translate(0.2222219556570053,0) translate(0.2222219556570053,0) translate(0.2222219556570053,0) translate(-1.4999992847442627,11.499994277954102) translate(-89,-327) translate(1,1) " id="XMLID_20_">
    <use id="svg_2" xlink:href="#XMLID_9_"/>
   </clipPath>
   <path d="m152.822121,50.166493c9.2,0 13.7,-3.2 13.7,-11.2l0,-11.1c0,-7.7 -3.7,-11.5 -12.7,-11.5l-11.9,0l0,33.9l10.9,0l0,-0.1zm1,-42.4c17.5,0 25,7.8 25,20.5l0,10.1c0,13.3 -8.3,20.2 -26,20.2l-11,0l0,33l-12.4,0l0,-83.8l24.4,0z" class="st2" id="XMLID_10_"/>
  </g>
  <polygon points="188.522216796875,7.76649284362793 188.522216796875,91.56650924682617 234.4222412109375,91.56650924682617 234.4222412109375,83.06650924682617 200.9222412109375,83.06650924682617 200.9222412109375,53.2664909362793 228.22222900390625,53.2664909362793 228.22222900390625,44.86649703979492 200.9222412109375,44.86649703979492 200.9222412109375,16.26649284362793 234.4222412109375,16.26649284362793 234.4222412109375,7.76649284362793 " class="st1" id="XMLID_7_"/>
  <g id="XMLID_4_">
   <defs transform="translate(0,-0.4444584548473358) translate(0,-0.4444584548473358) translate(0,-0.4444584548473358) translate(0,-0.4444584548473358) translate(0,-0.4444584548473358) translate(0,-0.4444584548473358) translate(0,-0.4444584548473358) translate(0,-0.4444584548473358) translate(0,-0.4444584548473358) translate(0,-0.4444584548473358) translate(0,-0.4444584548473358) translate(0,-0.4444584548473358) translate(-0.4444584548473358,0) translate(-0.4444584548473358,0) translate(-0.4444584548473358,0) translate(-0.4444584548473358,0) translate(-0.4444584548473358,0) translate(-0.4444584548473358,0) translate(-0.4444584548473358,0) translate(-0.2222219556570053,0) translate(-0.2222219556570053,0) translate(-0.2222219556570053,0) translate(-0.2222219556570053,0) translate(-0.2222219556570053,0) translate(-0.2222219556570053,0) translate(-0.2222219556570053,0) translate(-0.2222219556570053,0) translate(-0.2222219556570053,0) translate(-0.2222219556570053,0) translate(-0.2222219556570053,0) translate(-0.2222219556570053,0) translate(-0.2222219556570053,0) translate(-0.2222219556570053,0) translate(0.2222219556570053,0) translate(0.2222219556570053,0) translate(0.2222219556570053,0) translate(0.2222219556570053,0) translate(0.2222219556570053,0) translate(0.2222219556570053,0) translate(0.2222219556570053,0) translate(0.2222219556570053,0) translate(0.2222219556570053,0) translate(0.2222219556570053,0) translate(0.2222219556570053,0) translate(0.2222219556570053,0) translate(0.2222219556570053,0) translate(0.2222219556570053,0) translate(0.2222219556570053,0) translate(0.2222219556570053,0) translate(0.2222219556570053,0) translate(0.2222219556570053,0) translate(0.2222219556570053,0) translate(0.2222219556570053,0) translate(0.2222219556570053,0) translate(0.2222219556570053,0) translate(0.2222219556570053,0) translate(0.2222219556570053,0) translate(0.2222219556570053,0) translate(0.2222219556570053,0) translate(0.2222219556570053,0) translate(0.2222219556570053,0) translate(0.2222219556570053,0) translate(-1.4999992847442627,11.499994277954102) translate(-89,-327) translate(1,1) ">
    <rect height="85.4" width="415.2" y="327.6" x="90" id="XMLID_5_"/>
   </defs>
   <clipPath transform="translate(0,-0.4444584548473358) translate(0,-0.4444584548473358) translate(0,-0.4444584548473358) translate(0,-0.4444584548473358) translate(0,-0.4444584548473358) translate(0,-0.4444584548473358) translate(0,-0.4444584548473358) translate(0,-0.4444584548473358) translate(0,-0.4444584548473358) translate(0,-0.4444584548473358) translate(0,-0.4444584548473358) translate(0,-0.4444584548473358) translate(-0.4444584548473358,0) translate(-0.4444584548473358,0) translate(-0.4444584548473358,0) translate(-0.4444584548473358,0) translate(-0.4444584548473358,0) translate(-0.4444584548473358,0) translate(-0.4444584548473358,0) translate(-0.2222219556570053,0) translate(-0.2222219556570053,0) translate(-0.2222219556570053,0) translate(-0.2222219556570053,0) translate(-0.2222219556570053,0) translate(-0.2222219556570053,0) translate(-0.2222219556570053,0) translate(-0.2222219556570053,0) translate(-0.2222219556570053,0) translate(-0.2222219556570053,0) translate(-0.2222219556570053,0) translate(-0.2222219556570053,0) translate(-0.2222219556570053,0) translate(-0.2222219556570053,0) translate(0.2222219556570053,0) translate(0.2222219556570053,0) translate(0.2222219556570053,0) translate(0.2222219556570053,0) translate(0.2222219556570053,0) translate(0.2222219556570053,0) translate(0.2222219556570053,0) translate(0.2222219556570053,0) translate(0.2222219556570053,0) translate(0.2222219556570053,0) translate(0.2222219556570053,0) translate(0.2222219556570053,0) translate(0.2222219556570053,0) translate(0.2222219556570053,0) translate(0.2222219556570053,0) translate(0.2222219556570053,0) translate(0.2222219556570053,0) translate(0.2222219556570053,0) translate(0.2222219556570053,0) translate(0.2222219556570053,0) translate(0.2222219556570053,0) translate(0.2222219556570053,0) translate(0.2222219556570053,0) translate(0.2222219556570053,0) translate(0.2222219556570053,0) translate(0.2222219556570053,0) translate(0.2222219556570053,0) translate(0.2222219556570053,0) translate(0.2222219556570053,0) translate(-1.4999992847442627,11.499994277954102) translate(-89,-327) translate(1,1) " id="XMLID_21_">
    <use id="svg_3" xlink:href="#XMLID_5_"/>
   </clipPath>
   <path d="m295.122121,28.766493l0,7.5l-11.8,0l0,-8c0,-7.5 -4,-12.1 -13.1,-12.1c-8.9,0 -13.1,4.5 -13.1,12.1l0,44.3c0,7.5 4.1,12.1 13.1,12.1c9.1,0 13.1,-4.5 13.1,-12.1l0,-10.9l11.8,0l0,10.5c0,12.7 -8,21.1 -25.2,21.1c-17,0 -25,-8.4 -25,-21.1l0,-43.3c0,-12.7 8,-21.1 25,-21.1c17.2,0 25.2,8.4 25.2,21" class="st3" id="XMLID_6_"/>
  </g>
  <polygon points="306.4222412109375,7.76649284362793 306.4222412109375,91.56650924682617 352.22222900390625,91.56650924682617 352.22222900390625,83.06650924682617 318.8222351074219,83.06650924682617 318.8222351074219,53.2664909362793 346.022216796875,53.2664909362793 346.022216796875,44.86649703979492 318.8222351074219,44.86649703979492 318.8222351074219,16.26649284362793 352.22222900390625,16.26649284362793 352.22222900390625,7.76649284362793 " class="st1" id="XMLID_3_"/>
  <polygon points="363.72222900390625,7.76649284362793 363.72222900390625,91.56650924682617 376.1222229003906,91.56650924682617 376.1222229003906,16.26649284362793 403.522216796875,16.26649284362793 403.522216796875,91.56650924682617 416.022216796875,91.56650924682617 416.022216796875,7.76649284362793 " class="st1" id="XMLID_2_"/>
 </g>
</svg>